Coordinates
version=1
nRows=9
nColumns=36
inDegrees=yes

Units are S.I. units (second, meters, Newtons, ...)
If the header above contains a line with 'inDegrees', this indicates whether rotational values are in degrees (yes) or radians (no).

endheader
time	pelvis_tilt	pelvis_list	pelvis_rotation	pelvis_tx	pelvis_ty	pelvis_tz	hip_flexion_r	hip_adduction_r	hip_rotation_r	knee_angle_r	knee_angle_r_beta	ankle_angle_r	subtalar_angle_r	mtp_angle_r	hip_flexion_l	hip_adduction_l	hip_rotation_l	knee_angle_l	knee_angle_l_beta	ankle_angle_l	subtalar_angle_l	mtp_angle_l	lumbar_extension	lumbar_bending	lumbar_rotation	arm_flex_r	arm_add_r	arm_rot_r	elbow_flex_r	pro_sup_r	arm_flex_l	arm_add_l	arm_rot_l	elbow_flex_l	pro_sup_l
      2.56666670	    -17.09374575	     -4.99823397	      7.07778131	      0.84791676	      0.87076725	      0.19922034	     50.06722691	      7.99017708	     -3.99731559	     55.40825195	      0.96705643	     30.56404338	     -1.61888555	     -7.49999982	     65.01443850	     -9.69502549	      3.73865487	     33.63562559	      0.58705241	    -10.24274198	    -10.94674816	     -7.49999982	    -11.89488966	      3.74816212	      5.46204746	     50.39006318	     -8.35728853	     66.85190223	    123.23541118	     88.40048704	     54.38588322	     -1.52919382	     70.86430512	    118.84162804	     96.24796986
      2.58333330	    -17.34876299	     -5.23613998	      6.95926429	      0.84053228	      0.86930724	      0.19701781	     51.35157536	      8.18095384	     -4.14831453	     56.45709810	      0.98536225	     30.45515933	     -2.13358422	     -7.49999982	     66.04422773	     -9.87598494	      3.97097569	     33.85897078	      0.59095052	    -10.64300654	    -10.98180378	     -7.49999982	    -12.65323405	      4.01118672	      5.50138814	     51.42489133	     -8.82549969	     66.65483617	    123.00241911	     88.45694552	     55.50288772	     -1.47892428	     70.84656734	    118.59061057	     96.35964474
      2.60000000	    -18.01203983	     -5.67195840	      6.78591630	      0.84128722	      0.86581799	      0.19712197	     52.71124051	      8.58707613	     -4.18655779	     57.05648171	      0.99582347	     30.30585238	     -2.77335053	     -7.49999982	     67.18154476	    -10.08334845	      4.40764621	     33.76656464	      0.58933773	    -11.27328404	    -11.54095944	     -7.49999982	    -12.81174153	      4.38833375	      5.97640329	     52.20101390	     -9.68314245	     67.45765281	    123.15261414	     88.56940703	     56.34158461	     -1.37995364	     71.63091980	    117.99017712	     96.63177971
      2.61666670	    -18.51910836	     -5.89263716	      6.55616342	      0.84005680	      0.85952555	      0.19719350	     53.87631229	      8.80519635	     -4.29883499	     57.80812422	      1.00894210	     30.50353443	     -3.02107833	     -7.49999982	     68.10127233	    -10.25899738	      4.66413239	     33.78968082	      0.58974118	    -11.98604165	    -12.09761761	     -7.49999982	    -12.72910022	      4.38174077	      6.05560617	     52.48721994	     -9.62656801	     67.60574907	    123.26872962	     88.23917507	     57.05658256	     -1.33324246	     72.02252656	    117.60657398	     96.13150486
      2.63333330	    -19.07998237	     -6.04822443	      6.37995920	      0.83449232	      0.85541570	      0.20033370	     55.07177563	      9.04193906	     -4.36200564	     58.52867578	      1.02151810	     30.57777868	     -3.47258570	     -7.49999983	     69.13439680	    -10.44791030	      4.74548983	     33.96887767	      0.59286876	    -12.70782181	    -12.62053931	     -7.49999983	    -12.71560185	      4.30510786	      6.19123522	     52.84615997	     -9.38140967	     68.51544798	    123.73591239	     88.38252388	     57.78952007	     -1.35302956	     72.23744437	    117.64474793	     96.38854609
      2.65000000	    -19.30221515	     -6.26010356	      6.38527908	      0.83403155	      0.84742752	      0.20080844	     56.20844258	      9.22269362	     -4.60248929	     59.59717178	      1.04016687	     30.91314009	     -3.68088917	     -7.49999983	     69.95472460	    -10.57889255	      4.85061383	     34.42049576	      0.60075098	    -13.79725317	    -13.48382214	     -7.49999983	    -12.97626184	      4.42464662	      6.41239395	     53.38885889	     -9.23080355	     68.72252044	    124.40681642	     87.28252895	     58.47196218	     -1.00021667	     72.44655091	    118.54905503	     94.77290580
      2.66666670	    -19.89774472	     -6.50080865	      6.20261573	      0.83419293	      0.84383725	      0.20056016	     57.54187772	      9.53502831	     -4.60138646	     60.54988900	      1.05679492	     31.31370166	     -4.18401662	     -7.49999983	     71.13788269	    -10.83544966	      4.80569008	     35.16677385	      0.61377599	    -14.97748215	    -14.27495959	     -7.49999983	    -12.56634156	      4.60869347	      6.82937697	     53.84421073	     -9.46820052	     69.23023518	    124.26638741	     87.13832836	     58.70081981	     -0.64182444	     73.14375381	    118.68750678	     95.08203089
      2.68333330	    -20.10511006	     -6.79243749	      5.86069791	      0.83351163	      0.84091625	      0.20111662	     58.31793612	     10.09115364	     -4.62600707	     61.27718376	      1.06948861	     31.46662494	     -4.88977827	     -7.49999983	     71.57005320	    -11.29811085	      4.84465352	     35.48962841	      0.61941087	    -16.11919489	    -14.63007230	     -7.49999983	    -12.65865733	      4.83596515	      7.19855608	     54.16175278	     -9.86787673	     68.56165451	    123.83855176	     85.09208459	     58.75439995	     -0.64118335	     73.51108725	    118.73689873	     92.94432767
      2.70000000	    -20.30787100	     -6.89945773	      5.55084334	      0.83399944	      0.83785321	      0.20073345	     58.82915413	     10.47449442	     -4.43582516	     61.86524854	      1.07975228	     31.55138774	     -5.69164696	     -7.49999985	     71.65250376	    -11.48087686	      5.28436175	     35.66537988	      0.62247831	    -16.90183030	    -15.25215737	     -7.49999985	    -12.65648594	      4.85246306	      7.59125585	     53.83803679	    -10.52689402	     67.82329984	    123.65435041	     87.90823446	     58.90053139	     -0.48223808	     73.63403731	    118.21876082	     99.28520053
